<?xml version="1.0" standalone="no"?>
<!DOCTYPE svg PUBLIC "-//W3C//DTD SVG 20010904//EN"
 "http://www.w3.org/TR/2001/REC-SVG-20010904/DTD/svg10.dtd">
<svg version="1.0" xmlns="http://www.w3.org/2000/svg"
 width="256.000000pt" height="256.000000pt" viewBox="0 0 256.000000 256.000000"
 preserveAspectRatio="xMidYMid meet">

<g transform="translate(0.000000,256.000000) scale(0.100000,-0.100000)"
fill="#000000" stroke="none">
<path d="M332 2039 c-29 -5 -79 -19 -110 -32 l-57 -22 -3 -53 c-4 -61 -1 -61
78 -31 74 29 212 37 262 16 53 -22 71 -56 76 -147 l4 -77 -73 14 c-233 46
-399 -51 -399 -232 0 -154 119 -244 283 -214 73 13 105 28 156 74 l38 35 29
-45 c36 -58 55 -63 105 -31 44 29 47 43 22 89 -15 26 -19 71 -23 257 -5 185
-10 233 -24 268 -22 52 -82 105 -137 121 -56 17 -163 22 -227 10z m232 -435
c27 -10 19 -117 -12 -161 -49 -69 -189 -101 -249 -57 -82 61 -57 193 42 224
32 10 188 6 219 -6z"/>
<path d="M2085 2037 c-161 -54 -222 -175 -155 -307 31 -61 81 -92 210 -130
138 -41 170 -66 170 -132 0 -50 -42 -86 -110 -97 -67 -11 -171 2 -237 28 -57
22 -73 16 -73 -31 0 -67 102 -112 255 -113 105 0 171 19 229 67 102 84 102
253 -2 323 -20 14 -88 42 -151 63 -121 39 -181 79 -181 120 0 39 19 71 52 88
48 26 177 23 246 -5 30 -12 58 -19 63 -16 11 7 12 75 1 93 -28 43 -237 75
-317 49z"/>
<path d="M805 2020 c-8 -13 204 -711 223 -732 15 -18 74 -24 119 -12 27 8 28
8 103 324 34 140 62 256 64 257 1 2 33 -124 70 -280 45 -188 73 -286 83 -294
26 -20 117 -17 135 5 20 23 232 708 224 727 -7 19 -95 21 -120 2 -13 -9 -39
-96 -91 -293 -40 -155 -74 -287 -77 -295 -3 -8 -19 49 -37 126 -89 379 -110
458 -122 466 -8 5 -38 9 -66 9 -44 0 -55 -4 -67 -22 -8 -13 -42 -142 -76 -288
-34 -146 -64 -272 -67 -280 -3 -8 -39 116 -79 275 -50 193 -80 294 -91 303
-20 14 -119 16 -128 2z"/>
</g>
</svg>
